<svg width="21" height="21" viewBox="0 0 21 21" fill="none" xmlns="http://www.w3.org/2000/svg">
<path d="M3.89079 20.7157C2.89418 20.7157 1.89816 20.3367 1.1395 19.578C0.404742 18.8433 0 17.8658 0 16.8267C0 15.7877 0.404742 14.8102 1.1395 14.0754L6.68632 8.52863C8.20365 7.01129 10.6722 7.01129 12.1889 8.52863C12.5201 8.85983 12.5201 9.3961 12.1889 9.72671C11.8577 10.0573 11.3214 10.0579 10.9908 9.72671C10.1347 8.87059 8.74112 8.87059 7.8844 9.72671L2.33758 15.2735C1.92267 15.6884 1.6943 16.2403 1.6943 16.8267C1.6943 17.4132 1.92267 17.965 2.33758 18.3799C3.1937 19.2361 4.58728 19.2361 5.44399 18.3799L9.44 14.3845C9.7712 14.0533 10.3075 14.0539 10.6381 14.3845C10.9693 14.7157 10.9693 15.252 10.6381 15.5826L6.64208 19.5786C5.88341 20.3373 4.8874 20.7163 3.89079 20.7163V20.7157Z" fill="#333333"/>
<path d="M11.2809 13.3275C10.2419 13.3275 9.26441 12.9228 8.52966 12.188C8.19845 11.8574 8.19845 11.3205 8.52966 10.9899C8.86026 10.6593 9.39713 10.6587 9.72774 10.9899C10.1426 11.4048 10.6945 11.6332 11.2809 11.6332C11.8674 11.6332 12.4192 11.4048 12.8342 10.9899L18.381 5.44309C18.7959 5.02819 19.0243 4.47638 19.0243 3.88989C19.0243 3.3034 18.7959 2.75159 18.381 2.33668C17.5249 1.47997 16.1313 1.48057 15.2746 2.33668L11.3031 6.30818C10.9719 6.63879 10.4356 6.63879 10.105 6.30818C9.77377 5.97697 9.77377 5.4407 10.105 5.11009L14.0765 1.138C15.5938 -0.379334 18.0623 -0.379334 19.5791 1.138C20.3138 1.87275 20.7186 2.85023 20.7186 3.88929C20.7186 4.92835 20.3138 5.90583 19.5791 6.64058L14.0322 12.1874C13.2975 12.9222 12.32 13.3269 11.2809 13.3269V13.3275Z" fill="#333333"/>
</svg>
