<?xml version="1.0" encoding="UTF-8"?>
<svg id="_Слой_2" data-name="Слой 2" xmlns="http://www.w3.org/2000/svg" viewBox="0 0 16.49 18">
  <defs>
    <style>
      .cls-1 {
        fill: #334053;
      }
    </style>
  </defs>
  <g id="_Слой_1-2" data-name="Слой 1">
    <g>
      <path class="cls-1" d="m16.32,10.42c.54-4.52-.26-7.37-1.69-8.66h0C12.31-.44,4.51-.77,1.74,1.86.5,3.15.06,5.03.01,7.37c-.05,2.34-.1,6.71,3.97,7.9h0v1.81s-.03.73.44.88c.54.17.78-.17,2.45-2.16,2.79.24,4.93-.31,5.18-.39.56-.19,3.75-.61,4.27-4.99Zm-9.17,4.1s-1.77,2.2-2.32,2.77c-.18.19-.38.17-.37-.2,0-.24.01-3.01.01-3.01-3.46-.99-3.25-4.72-3.22-6.67.04-1.95.39-3.55,1.45-4.62,2.43-2.28,9.27-1.77,11.02-.13,2.13,1.89,1.37,7.23,1.38,7.41-.44,3.65-3.02,3.88-3.5,4.04-.2.07-2.09.55-4.45.39Z"/>
      <path class="cls-1" d="m8.12,3.23c-.29,0-.29.45,0,.45,2.24.02,4.08,1.58,4.1,4.44,0,.3.44.3.44,0h0c-.02-3.08-2.04-4.87-4.54-4.89Z"/>
      <path class="cls-1" d="m11.07,7.65c0,.3.43.31.44.01.04-1.7-1.01-3.1-2.98-3.25-.29-.02-.32.43-.03.45,1.71.13,2.61,1.3,2.57,2.78Zm-.47,1.93c-.37-.21-.75-.08-.9.13l-.33.42c-.17.21-.48.19-.48.19-2.26-.6-2.86-2.96-2.86-2.96,0,0-.03-.32.18-.49l.41-.34c.2-.16.33-.55.13-.93-.55-1-.93-1.35-1.12-1.61-.2-.25-.5-.31-.81-.14h0c-.65.38-1.36,1.09-1.13,1.82.39.77,1.1,3.23,3.37,5.08,1.07.88,2.75,1.78,3.47,1.98h0c.71.25,1.39-.49,1.76-1.16h0c.16-.33.11-.63-.13-.83-.42-.41-1.06-.86-1.56-1.16Z"/>
      <path class="cls-1" d="m8.83,6.08c.72.04,1.07.42,1.11,1.19.01.3.45.28.44-.02-.05-1.01-.57-1.57-1.52-1.62-.29-.02-.32.44-.02.45Z"/>
    </g>
  </g>
</svg>